# xmcd
#
# Track frame offsets:
#	150
#	15252
#	26597
#	40245
#	52212
#	69802
#	84420
#	98055
#	113342
#	130612
#	143852
#	161575
#	176917
#	189525
#	201947
#
# Disc length: 2915 seconds
#
# Revision: 0
# Processed by: cddbd v1.5.2PL0 Copyright (c) Steve Scherf et al.
# Submitted via: EasyCDDAExtractor 10.0.3.1
#
DISCID=bf0b610f
DTITLE=Olivia Newton-John - Legend Disc 2
DYEAR=1998
DGENRE=Ballad
TTITLE0=What Is Life
TTITLE1=Changes
TTITLE2=Everything I Own
TTITLE3=Why Don't You Write Me
TTITLE4=Angel Of The Morning
TTITLE5=If You Love Me (Let Me Know)
TTITLE6=Let Me Be There
TTITLE7=Please Mr. Please
TTITLE8=The Air That I Breathe
TTITLE9=Hands Across The Sea
TTITLE10=Rosewater
TTITLE11=If We Try
TTITLE12=Loving You Ain't Easy
TTITLE13=Have Love Will Travel
TTITLE14=Love Song
EXTD=
EXTT0=
EXTT1=
EXTT2=
EXTT3=
EXTT4=
EXTT5=
EXTT6=
EXTT7=
EXTT8=
EXTT9=
EXTT10=
EXTT11=
EXTT12=
EXTT13=
EXTT14=
PLAYORDER=
